<svg xmlns="http://www.w3.org/2000/svg" viewBox="0 0 32 32">
  <defs>
    <linearGradient id="bg" x1="0%" y1="0%" x2="100%" y2="100%">
      <stop offset="0%" stop-color="#6366f1"/>
      <stop offset="100%" stop-color="#8b5cf6"/>
    </linearGradient>
  </defs>
  <rect width="32" height="32" rx="8" fill="url(#bg)"/>
  <!-- Pen nib -->
  <path d="M10 22l2-6 10-10a1.41 1.41 0 0 1 2 2L14 18l-6 2 2-6z" fill="none" stroke="white" stroke-width="1.8" stroke-linecap="round" stroke-linejoin="round"/>
  <path d="M18 8l4 4" fill="none" stroke="white" stroke-width="1.8" stroke-linecap="round"/>
  <!-- Sparkle top-right -->
  <path d="M24 4l.5 1.5L26 6l-1.5.5L24 8l-.5-1.5L22 6l1.5-.5z" fill="#fbbf24"/>
  <!-- Sparkle small -->
  <path d="M8 6l.3.9.9.3-.9.3L8 8.4l-.3-.9-.9-.3.9-.3z" fill="#fbbf24" opacity="0.7"/>
</svg>
